<?xml version="1.0" encoding="utf-8"?>
<!-- Generator: Adobe Illustrator 18.1.0, SVG Export Plug-In . SVG Version: 6.00 Build 0)  -->
<!DOCTYPE svg PUBLIC "-//W3C//DTD SVG 1.1//EN" "http://www.w3.org/Graphics/SVG/1.1/DTD/svg11.dtd">
<svg version="1.1" id="Layer_1" xmlns="http://www.w3.org/2000/svg" xmlns:xlink="http://www.w3.org/1999/xlink" x="0px" y="0px"
	 viewBox="0 0 133 14" enable-background="new 0 0 133 14" xml:space="preserve">
<g>
	<rect y="12.6" width="133" height="1.4"/>
</g>
<g>
	<path d="M7.3,8.8H5.4V5H2v3.7H0.2V0.1H2v3.4h3.4V0.1h1.8V8.8z"/>
	<path d="M17.3,4.4c0,1.4-0.4,2.5-1.1,3.3c-0.7,0.8-1.7,1.2-3,1.2s-2.3-0.4-3-1.2S9,5.9,9,4.4s0.4-2.5,1.1-3.3
		C10.8,0.4,11.8,0,13.2,0s2.3,0.4,3,1.1C16.9,1.9,17.3,3,17.3,4.4z M11,4.4c0,1,0.2,1.7,0.5,2.2s0.9,0.7,1.6,0.7
		c1.5,0,2.2-1,2.2-2.9c0-1.9-0.7-2.9-2.2-2.9c-0.7,0-1.3,0.2-1.6,0.7C11.2,2.7,11,3.5,11,4.4z"/>
	<path d="M22.7,8.8L20.6,2h-0.1c0.1,1.4,0.1,2.3,0.1,2.8v4h-1.6V0.1h2.5l2,6.6h0l2.2-6.6h2.5v8.6h-1.7V4.7c0-0.2,0-0.4,0-0.7
		c0-0.3,0-0.9,0.1-2h-0.1l-2.2,6.8H22.7z"/>
	<path d="M35.4,8.8h-5V0.1h5v1.5h-3.1v1.9h2.9V5h-2.9v2.2h3.1V8.8z"/>
</g>
</svg>
