<svg version="1.1" id="logoSVG" width="133px" height="14px" viewBox="0 0 133 14" xmlns="http://www.w3.org/2000/svg" >
<g>
	<g id="text-front" fill="#1e90ff" opacity="1">
		<path d="M3.8,8.8L1.8,2H1.7c0.1,1.4,0.1,2.3,0.1,2.8v4H0.2V0.1h2.5l2,6.6h0l2.2-6.6h2.5v8.6H7.7V4.7c0-0.2,0-0.4,0-0.7
			s0-0.9,0.1-2H7.7L5.5,8.8H3.8z"/>
		<path d="M16.9,8.8l-0.6-2.1h-3.1l-0.6,2.1h-2l3-8.7h2.2l3.1,8.7H16.9z M15.8,5.2c-0.6-1.9-0.9-2.9-1-3.2c-0.1-0.2-0.1-0.4-0.2-0.6
			c-0.1,0.5-0.5,1.7-1.1,3.7H15.8z"/>
		<path d="M23.2,8.8h-1.8V1.7h-2.3V0.1h6.5v1.5h-2.3V8.8z"/>
		<path d="M30.2,8.8h-1.8V1.7h-2.3V0.1h6.5v1.5h-2.3V8.8z"/>
	</g>
	<g id="text-back" fill="#1e90ff" opacity="1">
		<path d="M41,8.8h-1.8V5h-3.4v3.7h-1.8V0.1h1.8v3.4h3.4V0.1H41V8.8z"/>
		<path d="M48.1,8.8h-5V0.1h5v1.5H45v1.9h2.9V5H45v2.2h3.1V8.8z"/>
		<path d="M58.3,8.8h-2.1l-1.2-4.5c0-0.2-0.1-0.5-0.2-1s-0.2-0.8-0.2-1c0,0.2-0.1,0.6-0.2,1c-0.1,0.5-0.2,0.8-0.2,1l-1.2,4.5H51
			l-2.2-8.6h1.8l1.1,4.7c0.2,0.9,0.3,1.6,0.4,2.3c0-0.2,0.1-0.6,0.2-1c0.1-0.5,0.2-0.8,0.2-1.1l1.3-4.8h1.7L56.8,5
			c0.1,0.2,0.1,0.5,0.2,1c0.1,0.4,0.1,0.8,0.2,1.1c0-0.3,0.1-0.7,0.2-1.1c0.1-0.5,0.2-0.8,0.2-1.1l1.1-4.7h1.8L58.3,8.8z"/>
		<path d="M66.6,8.8h-5V0.1h5v1.5h-3.1v1.9h2.9V5h-2.9v2.2h3.1V8.8z"/>
		<path d="M68.4,8.8V0.1h1.8v7.1h3.5v1.5H68.4z"/>
		<path d="M80.3,6.4c0,0.8-0.3,1.4-0.8,1.8c-0.6,0.4-1.3,0.7-2.3,0.7c-0.9,0-1.7-0.2-2.4-0.5V6.7c0.6,0.3,1.1,0.4,1.5,0.5
			c0.4,0.1,0.8,0.2,1.1,0.2c0.4,0,0.7-0.1,0.9-0.2c0.2-0.2,0.3-0.4,0.3-0.7c0-0.2,0-0.3-0.1-0.5c-0.1-0.1-0.2-0.3-0.4-0.4
			c-0.2-0.1-0.6-0.3-1.1-0.6c-0.5-0.2-0.9-0.5-1.2-0.7c-0.3-0.2-0.5-0.5-0.6-0.8c-0.2-0.3-0.2-0.7-0.2-1.1c0-0.8,0.3-1.4,0.8-1.8
			C76,0.2,76.8,0,77.7,0c0.4,0,0.9,0.1,1.3,0.2c0.4,0.1,0.8,0.3,1.3,0.4L79.6,2c-0.5-0.2-0.8-0.3-1.1-0.4c-0.3-0.1-0.6-0.1-0.9-0.1
			c-0.3,0-0.6,0.1-0.8,0.2c-0.2,0.2-0.3,0.4-0.3,0.6c0,0.2,0,0.3,0.1,0.4c0.1,0.1,0.2,0.2,0.4,0.3c0.2,0.1,0.5,0.3,1.2,0.6
			c0.8,0.4,1.4,0.8,1.7,1.2C80.1,5.3,80.3,5.8,80.3,6.4z"/>
		<path d="M89.7,4.4c0,1.4-0.4,2.5-1.1,3.3c-0.7,0.8-1.7,1.2-3,1.2c-1.3,0-2.3-0.4-3-1.2c-0.7-0.8-1.1-1.9-1.1-3.3
			c0-1.4,0.4-2.5,1.1-3.3C83.2,0.4,84.2,0,85.6,0c1.3,0,2.3,0.4,3,1.1C89.3,1.9,89.7,3,89.7,4.4z M83.4,4.4c0,1,0.2,1.7,0.5,2.2
			c0.4,0.5,0.9,0.7,1.6,0.7c1.5,0,2.2-1,2.2-2.9c0-1.9-0.7-2.9-2.2-2.9c-0.7,0-1.3,0.2-1.6,0.7S83.4,3.5,83.4,4.4z"/>
		<path d="M95.1,8.8L93,2H93c0.1,1.4,0.1,2.3,0.1,2.8v4h-1.6V0.1h2.5l2,6.6h0l2.2-6.6h2.5v8.6H99V4.7c0-0.2,0-0.4,0-0.7
			c0-0.3,0-0.9,0.1-2H99l-2.2,6.8H95.1z"/>
		<path d="M102.4,7.9c0-0.3,0.1-0.6,0.3-0.7c0.2-0.2,0.4-0.3,0.8-0.3c0.3,0,0.6,0.1,0.8,0.3c0.2,0.2,0.3,0.4,0.3,0.7
			c0,0.3-0.1,0.6-0.3,0.7c-0.2,0.2-0.4,0.3-0.8,0.3c-0.3,0-0.6-0.1-0.8-0.3C102.5,8.5,102.4,8.2,102.4,7.9z"/>
		<path d="M109.9,1.5c-0.7,0-1.2,0.3-1.6,0.8c-0.4,0.5-0.6,1.2-0.6,2.2c0,1.9,0.7,2.9,2.2,2.9c0.6,0,1.3-0.2,2.2-0.5v1.5
			c-0.7,0.3-1.5,0.4-2.4,0.4c-1.3,0-2.2-0.4-2.9-1.1c-0.7-0.8-1-1.9-1-3.3c0-0.9,0.2-1.7,0.5-2.4c0.3-0.7,0.8-1.2,1.4-1.6
			c0.6-0.4,1.3-0.5,2.2-0.5c0.8,0,1.7,0.2,2.5,0.6l-0.6,1.5c-0.3-0.2-0.6-0.3-1-0.4C110.6,1.6,110.3,1.5,109.9,1.5z"/>
		<path d="M121.8,4.4c0,1.4-0.4,2.5-1.1,3.3c-0.7,0.8-1.7,1.2-3,1.2c-1.3,0-2.3-0.4-3-1.2c-0.7-0.8-1.1-1.9-1.1-3.3
			c0-1.4,0.4-2.5,1.1-3.3c0.7-0.8,1.7-1.1,3.1-1.1c1.3,0,2.3,0.4,3,1.1C121.5,1.9,121.8,3,121.8,4.4z M115.5,4.4
			c0,1,0.2,1.7,0.5,2.2c0.4,0.5,0.9,0.7,1.6,0.7c1.5,0,2.2-1,2.2-2.9c0-1.9-0.7-2.9-2.2-2.9c-0.7,0-1.3,0.2-1.6,0.7
			C115.7,2.7,115.5,3.5,115.5,4.4z"/>
		<path d="M127.2,8.8L125.2,2h-0.1c0.1,1.4,0.1,2.3,0.1,2.8v4h-1.6V0.1h2.5l2,6.6h0l2.2-6.6h2.5v8.6h-1.7V4.7c0-0.2,0-0.4,0-0.7
			s0-0.9,0.1-2h-0.1l-2.2,6.8H127.2z"/>
	</g>
	<g id="line" fill="#1e90ff">
		<rect y="12.6" width="133" height="1.4"/>
	</g>
</g>
</svg>