<?xml version="1.0" encoding="utf-8"?>
<!-- Generator: Adobe Illustrator 18.1.1, SVG Export Plug-In . SVG Version: 6.00 Build 0)  -->
<!DOCTYPE svg PUBLIC "-//W3C//DTD SVG 1.1//EN" "http://www.w3.org/Graphics/SVG/1.1/DTD/svg11.dtd">
<svg version="1.1" id="Layer_1" xmlns="http://www.w3.org/2000/svg" xmlns:xlink="http://www.w3.org/1999/xlink" x="0px" y="0px"
	 viewBox="0 0 400 200" enable-background="new 0 0 400 200" xml:space="preserve">
<g>
	<polyline fill="none" stroke="#1E90FF" stroke-width="8" stroke-linecap="round" stroke-miterlimit="10" points="303.6,139.6 
		346.4,96.7 303.6,53.9 	"/>
	<polyline fill="none" stroke="#1E90FF" stroke-width="8" stroke-linecap="round" stroke-miterlimit="10" points="96.4,53.9 
		53.6,96.7 96.4,139.6 	"/>
	<g>
		<path fill="#1E90FF" d="M139.1,89.7c-1.2-0.4-2.5-0.8-4-1.1c-1.4-0.3-2.8-0.4-4.2-0.4c-5.2,0-9.1,1.2-11.7,3.7
			c-2.6,2.5-3.8,6.4-3.8,11.7c0,2.4,0.4,4.5,1.1,6.3c0.7,1.8,1.8,3.4,3.2,4.7c1.4,1.3,3.1,2.3,5,3c1.9,0.7,4.1,1,6.4,1
			c2.5,0,4.9-0.4,7.3-1.3c2.4-0.9,4.4-2,6-3.4l2.8,4.6c-0.7,0.6-1.7,1.3-2.8,2c-1.1,0.7-2.4,1.3-3.9,2c-1.5,0.6-3.1,1.1-4.9,1.5
			c-1.8,0.4-3.7,0.6-5.8,0.6c-3.5,0-6.5-0.5-9.2-1.5c-2.6-1-4.8-2.4-6.6-4.2s-3.1-4.1-4-6.6c-0.9-2.6-1.4-5.5-1.4-8.6
			c0-3.4,0.5-6.3,1.4-9c0.9-2.6,2.3-4.8,4-6.6c1.8-1.8,3.9-3.1,6.4-4c2.5-0.9,5.3-1.4,8.4-1.4c3.9,0,7.2,0.3,9.6,1
			c2.5,0.7,4.6,1.5,6.3,2.3l-0.1,0.2v11.1h-5.8V89.7z"/>
		<path fill="#1E90FF" d="M156.6,103.6c0-6.5,1.7-11.6,5-15.3c3.4-3.8,8.2-5.6,14.4-5.6c3.4,0,6.3,0.5,8.7,1.6
			c2.4,1.1,4.4,2.6,6,4.4c1.6,1.9,2.8,4.1,3.6,6.6c0.8,2.6,1.2,5.3,1.2,8.2c0,3.2-0.4,6.1-1.3,8.7c-0.9,2.6-2.1,4.8-3.8,6.6
			c-1.7,1.8-3.7,3.2-6.1,4.2c-2.4,1-5.2,1.5-8.3,1.5c-3.3,0-6.2-0.5-8.6-1.6c-2.5-1.1-4.5-2.6-6.1-4.4c-1.6-1.9-2.8-4.1-3.6-6.6
			C156.9,109.3,156.6,106.5,156.6,103.6z M163.2,103.6c0,1.9,0.2,3.7,0.7,5.6c0.5,1.9,1.2,3.5,2.2,5c1,1.5,2.3,2.7,3.9,3.6
			c1.6,0.9,3.6,1.4,5.9,1.4c4.3,0,7.5-1.3,9.6-4c2.2-2.6,3.2-6.5,3.2-11.6c0-1.9-0.2-3.8-0.7-5.6c-0.5-1.8-1.2-3.5-2.2-5
			c-1-1.5-2.4-2.7-4-3.6c-1.6-0.9-3.6-1.4-5.9-1.4c-4.3,0-7.4,1.3-9.6,3.9S163.2,98.4,163.2,103.6z"/>
		<path fill="#1E90FF" d="M227.8,67.6h13v42.3c0,0.5,0,1.1,0.1,1.8c0.1,0.7,0.1,1.5,0.2,2.3c0.1,0.8,0.2,1.6,0.3,2.4
			c0.1,0.8,0.2,1.5,0.3,2h5.4v5.2h-10.7l-0.8-6.2h-0.3c-1.2,2-2.9,3.7-5.2,5.1s-5,2-8,2c-6,0-10.4-1.7-13.3-5.1
			c-2.8-3.4-4.3-8.7-4.3-15.8c0-3.4,0.5-6.3,1.4-8.9c1-2.6,2.3-4.7,4.1-6.5c1.8-1.7,3.9-3.1,6.4-4c2.5-0.9,5.3-1.4,8.4-1.4
			c1.1,0,2.1,0,3,0.1c0.9,0.1,1.7,0.1,2.4,0.2c0.7,0.1,1.5,0.3,2.1,0.4c0.7,0.2,1.4,0.4,2.2,0.6V72.9h-6.7V67.6z M223.1,119.2
			c3.2,0,5.8-0.8,7.7-2.5s3.1-4.2,3.8-7.6V90.5c-1.2-0.8-2.5-1.4-3.9-1.8c-1.5-0.4-3.4-0.6-5.8-0.6c-4.3,0-7.6,1.2-10,3.7
			c-2.4,2.5-3.7,6.4-3.7,11.7c0,2.2,0.2,4.2,0.6,6.1c0.4,1.9,1.1,3.5,2,4.9c0.9,1.4,2.2,2.5,3.7,3.3
			C219,118.8,220.8,119.2,223.1,119.2z"/>
		<path fill="#1E90FF" d="M290.3,118.5c-1,0.9-2.1,1.7-3.4,2.4c-1.3,0.7-2.7,1.4-4.3,1.9s-3.2,0.9-4.8,1.2c-1.7,0.3-3.4,0.4-5.1,0.4
			c-3.2,0-6-0.5-8.5-1.5c-2.5-1-4.5-2.4-6.2-4.2c-1.7-1.8-2.9-4-3.8-6.6c-0.9-2.6-1.3-5.4-1.3-8.6c0-3.4,0.5-6.3,1.4-9
			c0.9-2.6,2.3-4.8,4-6.6c1.8-1.8,3.9-3.1,6.4-4c2.5-0.9,5.3-1.4,8.4-1.4c2.2,0,4.5,0.3,6.6,0.9c2.2,0.6,4.1,1.7,5.8,3.3
			c1.7,1.6,3,3.9,3.9,6.7c0.9,2.9,1.2,6.5,1,11.1h-30.9c0,4.8,1.3,8.4,3.9,10.8c2.6,2.4,6,3.6,10.3,3.6c1.4,0,2.9-0.2,4.3-0.5
			c1.4-0.3,2.8-0.8,4-1.2c1.3-0.5,2.4-1,3.4-1.6c1-0.6,1.7-1.1,2.3-1.6L290.3,118.5z M273.5,87.9c-1.8,0-3.4,0.2-5,0.6
			c-1.6,0.4-3,1-4.1,1.9s-2.2,2-3,3.4s-1.3,3.2-1.5,5.2h24.8c-0.3-3.5-1.4-6.3-3.4-8.2C279.3,88.9,276.7,87.9,273.5,87.9z"/>
	</g>
</g>
</svg>
