<?xml version="1.0" encoding="utf-8"?>
<!-- Generator: Adobe Illustrator 18.1.1, SVG Export Plug-In . SVG Version: 6.00 Build 0)  -->
<!DOCTYPE svg PUBLIC "-//W3C//DTD SVG 1.1//EN" "http://www.w3.org/Graphics/SVG/1.1/DTD/svg11.dtd">
<svg version="1.1" id="Layer_1" xmlns="http://www.w3.org/2000/svg" xmlns:xlink="http://www.w3.org/1999/xlink" x="0px" y="0px"
	 viewBox="0 0 400 200" enable-background="new 0 0 400 200" xml:space="preserve">
<g>
	<g>
		<path fill="none" stroke="#1E90FF" stroke-width="8" stroke-linecap="round" stroke-miterlimit="10" d="M264.5,118l-39.8,39.9
			c-1.9,1.9-4.6,3-7.4,3s-5.4-1.1-7.3-3l-58-58.1c-4.1-4.1-7.4-11.9-7.4-17.7V48.4c0-5.7,4.7-10.4,10.4-10.4h33.8
			c5.8,0,13.6,3.2,17.8,7.4l58,57.9c1.9,1.9,3,4.6,3,7.4S266.4,116.1,264.5,118z"/>
		<path fill="none" stroke="#1E90FF" stroke-width="2" stroke-linejoin="round" stroke-miterlimit="10" d="M170.6,53.6
			c-5.8,0-10.4,4.6-10.4,10.4s4.6,10.4,10.4,10.4S181,69.7,181,64S176.3,53.6,170.6,53.6z"/>
	</g>
	<g>
		<path fill="none" stroke="#1E90FF" stroke-width="2" stroke-linejoin="round" stroke-miterlimit="10" d="M209.6,157.5
			c-0.1,2.7-1.1,5.4-3.1,7.3c-2,2-4.6,3-7.3,3l-56.4,0.1c-2.7-0.1-5.4-1.1-7.3-3.1c-2-2-3-4.6-3-7.3l0.1-82.1
			c-0.1-5.8,3.2-13.7,7.3-17.7l4.8-4.2"/>
		<path fill="none" stroke="#1E90FF" stroke-width="2" stroke-linejoin="round" stroke-miterlimit="10" d="M178.4,55.9
			c-4.1-4.1-10.6-4.1-14.7,0c-4.1,4.1-4.1,10.6,0,14.7c4.1,4.1,10.6,4.1,14.7,0C182.4,66.6,182.4,60,178.4,55.9z"/>
	</g>
</g>
</svg>
