<?xml version="1.0" encoding="utf-8"?>
<!-- Generator: Adobe Illustrator 18.1.1, SVG Export Plug-In . SVG Version: 6.00 Build 0)  -->
<!DOCTYPE svg PUBLIC "-//W3C//DTD SVG 1.1//EN" "http://www.w3.org/Graphics/SVG/1.1/DTD/svg11.dtd">
<svg version="1.1" id="Layer_1" xmlns="http://www.w3.org/2000/svg" xmlns:xlink="http://www.w3.org/1999/xlink" x="0px" y="0px"
	 viewBox="0 0 400 200" enable-background="new 0 0 400 200" xml:space="preserve">
<g>
	<path fill="#1E90FF" d="M284,39.3v121.3H116V39.3H284 M290,33.3H110v133.3h180V33.3L290,33.3z"/>
</g>
<circle fill="#1E90FF" cx="123" cy="46.7" r="2.7"/>
<circle fill="#1E90FF" cx="133" cy="46.7" r="2.7"/>
<circle fill="#1E90FF" cx="143" cy="46.7" r="2.7"/>
<g>
	<path fill="#1E90FF" d="M288,35.3v20.3H112V35.3H288 M290,33.3H110v24.3h180V33.3L290,33.3z"/>
</g>
<g>
	<path fill="#1E90FF" d="M193.7,75.7v72.6h-66V75.7H193.7 M195.7,73.7h-70v76.6h70V73.7L195.7,73.7z"/>
</g>
<g>
	<path fill="#1E90FF" d="M273.7,75.7v16.5h-66V75.7H273.7 M275.7,73.7h-70v20.5h70V73.7L275.7,73.7z"/>
</g>
</svg>
