<?xml version="1.0" encoding="utf-8"?>
<!-- Generator: Adobe Illustrator 18.1.1, SVG Export Plug-In . SVG Version: 6.00 Build 0)  -->
<!DOCTYPE svg PUBLIC "-//W3C//DTD SVG 1.1//EN" "http://www.w3.org/Graphics/SVG/1.1/DTD/svg11.dtd">
<svg version="1.1" id="Layer_1" xmlns="http://www.w3.org/2000/svg" xmlns:xlink="http://www.w3.org/1999/xlink" x="0px" y="0px"
	 viewBox="0 0 400 200" enable-background="new 0 0 400 200" xml:space="preserve">
<circle fill="#1E90FF" cx="200" cy="100" r="10"/>
<path fill="#1E90FF" d="M200,31c-38.1,0-69,30.9-69,69h10c0-32.5,26.5-59,59-59s59,26.5,59,59s-26.5,59-59,59v10
	c38.1,0,69-30.9,69-69S238.1,31,200,31z"/>
<polyline fill="none" stroke="#1E90FF" stroke-width="6" stroke-linecap="round" stroke-miterlimit="10" points="185.5,145.1 
	185.5,114.9 155.4,114.9 "/>
<line fill="none" stroke="#1E90FF" stroke-width="6" stroke-linecap="round" stroke-miterlimit="10" x1="185.5" y1="114.9" x2="138.6" y2="161.9"/>
<path fill="#1E90FF" d="M200,60c-22.1,0-40,17.9-40,40h10c0-16.5,13.5-30,30-30s30,13.5,30,30s-13.5,30-30,30v10
	c22.1,0,40-17.9,40-40C240,77.9,222.1,60,200,60z"/>
</svg>
