<?xml version="1.0" encoding="utf-8"?>
<!-- Generator: Adobe Illustrator 18.1.1, SVG Export Plug-In . SVG Version: 6.00 Build 0)  -->
<!DOCTYPE svg PUBLIC "-//W3C//DTD SVG 1.1//EN" "http://www.w3.org/Graphics/SVG/1.1/DTD/svg11.dtd">
<svg version="1.1" id="Layer_1" xmlns="http://www.w3.org/2000/svg" xmlns:xlink="http://www.w3.org/1999/xlink" x="0px" y="0px"
	 viewBox="0 0 400 200" enable-background="new 0 0 400 200" xml:space="preserve">
<path fill="none" stroke="#1E90FF" stroke-width="6" stroke-linecap="round" stroke-miterlimit="10" d="M151.1,48.8
	c0,0,15.8-21.4,49-21.4s47,16.9,47,16.9"/>
<path fill="none" stroke="#1E90FF" stroke-width="6" stroke-linecap="round" stroke-miterlimit="10" d="M145.4,78.8
	c0,0,17.6-35.6,54.8-35.6s52.5,28.3,52.5,28.3"/>
<path fill="none" stroke="#1E90FF" stroke-width="6" stroke-linecap="round" stroke-miterlimit="10" d="M244,158.7
	c-4.3-2-15.5-9.6-16.7-22.7c-0.7-7.5,0-12.1,1.3-22c0.8-5.8,2.8-14.2,0.6-20.9c-0.7-2.8-8.9-20.1-26.2-20.1
	c-15.4,0-22.9,10.1-29.2,20.4c-9.2,15-27.3,27.6-29.4,28.5"/>
<path fill="none" stroke="#1E90FF" stroke-width="6" stroke-linecap="round" stroke-miterlimit="10" d="M145.4,100
	c0,0,7.9-3.4,15-14.9c5.5-8.9,17.2-27.9,42.7-27.9c27,0,38.9,25.2,40.9,33c3.2,12.7-3.6,33.2-1.4,41.8c2,7.6,10.1,15,10.1,15"/>
<path fill="none" stroke="#1E90FF" stroke-width="6" stroke-linecap="round" stroke-miterlimit="10" d="M151.7,156.7
	c0,0,39.6-27.6,49.8-51.6"/>
<path fill="none" stroke="#1E90FF" stroke-width="6" stroke-linecap="round" stroke-miterlimit="10" d="M214.1,137.5
	c0,0-9.3,14.7,10.9,31.6"/>
<path fill="none" stroke="#1E90FF" stroke-width="6" stroke-linecap="round" stroke-miterlimit="10" d="M207.6,173.7
	c0,0-1.3-13.1-10.7-13.1c-7.8,0-17.1,10.3-17.1,10.3"/>
<path fill="none" stroke="#1E90FF" stroke-width="6" stroke-linecap="round" stroke-miterlimit="10" d="M254.6,83.6
	c0,0,7.4,24.9,1.6,45.7"/>
<path fill="none" stroke="#1E90FF" stroke-width="6" stroke-linecap="round" stroke-miterlimit="10" d="M144.5,141.3
	c0,0,34.1-24.9,40.9-40.2c6.8-15.4,18.2-13,22.2-11.6c5.7,2,14.1,12.9,6.5,25.7c-10.7,18.1-37.2,44.2-49.4,52"/>
</svg>
