<?xml version="1.0" encoding="utf-8"?>
<!-- Generator: Adobe Illustrator 18.1.1, SVG Export Plug-In . SVG Version: 6.00 Build 0)  -->
<!DOCTYPE svg PUBLIC "-//W3C//DTD SVG 1.1//EN" "http://www.w3.org/Graphics/SVG/1.1/DTD/svg11.dtd">
<svg version="1.1" id="Layer_1" xmlns="http://www.w3.org/2000/svg" xmlns:xlink="http://www.w3.org/1999/xlink" x="0px" y="0px"
	 viewBox="0 0 400 200" enable-background="new 0 0 400 200" xml:space="preserve">
<g>
	<g>
		<path fill="#1E90FF" d="M216.1,41c14.8,0,26.8,12,26.8,26.8c0,1.3-0.1,2.6-0.3,3.9l-1.2,7.9l7.9,1.2c8.9,1.3,15.7,9.1,15.7,18.1
			c0,10.1-8.2,18.3-18.3,18.3c-0.5,0-1.1-0.1-1.7-0.1l-0.4-0.1h-0.4h-88.4h-0.4l-0.4,0.1c-0.6,0.1-1.2,0.1-1.7,0.1
			c-10.1,0-18.3-8.2-18.3-18.3c0-9,6.7-16.7,15.5-18.1l8.4-1.3l-1.8-8.3c-0.2-1.1-0.4-2.3-0.4-3.5c0-9.1,7.4-16.5,16.5-16.5
			c3.5,0,6.8,1.1,9.6,3.1l6.6,4.7l4.6-6.6C199.2,45.3,207.4,41,216.1,41 M216.1,33c-11.8,0-22.2,5.9-28.5,14.8
			c-4-2.9-8.9-4.6-14.2-4.6c-13.5,0-24.5,11-24.5,24.5c0,1.8,0.2,3.5,0.5,5.1c-12.6,2-22.3,12.9-22.3,26c0,14.5,11.8,26.3,26.3,26.3
			c0.8,0,1.6-0.2,2.4-0.2h88.4c0.8,0,1.6,0.2,2.4,0.2c14.5,0,26.3-11.8,26.3-26.3c0-13.2-9.8-24.2-22.5-26c0.2-1.7,0.4-3.4,0.4-5.1
			C250.9,48.6,235.3,33,216.1,33L216.1,33z"/>
	</g>
	
		<line fill="none" stroke="#1E90FF" stroke-width="6" stroke-linecap="round" stroke-miterlimit="10" x1="200" y1="121" x2="200" y2="155"/>
	
		<line fill="none" stroke="#1E90FF" stroke-width="6" stroke-linecap="round" stroke-miterlimit="10" x1="146" y1="155" x2="253" y2="155"/>
	<circle fill="#1E90FF" cx="200" cy="157.6" r="9.4"/>
</g>
</svg>
